<?xml version="1.0" standalone="no"?><!DOCTYPE svg PUBLIC "-//W3C//DTD SVG 1.1//EN" "http://www.w3.org/Graphics/SVG/1.1/DTD/svg11.dtd"><svg t="1630569421488" class="icon" viewBox="0 0 1026 1024" version="1.1" xmlns="http://www.w3.org/2000/svg" p-id="3480" xmlns:xlink="http://www.w3.org/1999/xlink" width="32.0625" height="32"><defs><style type="text/css"></style></defs><path d="M228.072727 374.690909v-4.654545c0-23.272727 18.618182-41.890909 41.890909-41.890909H302.545455c23.272727 0 41.890909 18.618182 41.890909 41.890909v6.981818c0 23.272727 4.654545 25.6 27.927272 25.6h286.254546c20.945455 0 23.272727-2.327273 23.272727-23.272727v-9.309091c0-23.272727 18.618182-41.890909 41.890909-41.890909h32.581818c23.272727 0 41.890909 18.618182 41.890909 41.890909v6.981818c0 20.945455 6.981818 23.272727 27.927273 23.272727h158.254546c20.945455 0 27.927273-6.981818 27.927272-27.927273v-46.545454c0-46.545455-37.236364-83.781818-81.454545-83.781818H97.745455C53.527273 242.036364 16.290909 279.272727 16.290909 325.818182v44.218182c0 23.272727 6.981818 30.254545 32.581818 30.254545h148.945455c23.272727 0 30.254545-2.327273 30.254545-25.6z" fill="#ffffff" p-id="3481"></path><path d="M979.781818 416.581818h-158.254545c-23.272727 0-44.218182-4.654545-41.890909-46.545454H809.890909v16.290909h169.890909c9.309091 0 11.636364 0 11.636364-2.327273v-55.854545c0-37.236364-30.254545-67.490909-67.490909-67.49091H97.745455c-37.236364 0-67.490909 30.254545-67.49091 67.49091V372.363636c0 9.309091 2.327273 11.636364 2.327273 11.636364s2.327273 2.327273 16.290909 2.327273h162.909091v-20.945455c2.327273-27.927273 27.927273-51.2 55.854546-51.2h32.581818c30.254545 0 53.527273 23.272727 55.854545 51.2v20.945455H660.945455v-18.618182c2.327273-30.254545 25.6-55.854545 55.854545-55.854546h32.581818c30.254545 0 53.527273 23.272727 55.854546 53.527273v4.654546h-30.254546c0-13.963636-11.636364-25.6-25.6-25.6H721.454545c-13.963636 0-25.6 11.636364-25.6 25.6v9.309091c0 27.927273-9.309091 37.236364-39.563636 37.236363H370.036364c-27.927273 0-44.218182-6.981818-44.218182-41.890909v-6.981818c0-13.963636-11.636364-25.6-25.6-25.6h-32.581818c-13.963636 0-25.6 11.636364-25.6 25.6v4.654545c0 34.909091-16.290909 41.890909-44.218182 41.890909H48.872727C13.963636 416.581818 0 402.618182 0 372.363636v-44.218181c0-55.854545 44.218182-100.072727 97.745455-100.072728h828.50909c53.527273 0 97.745455 44.218182 97.745455 100.072728v46.545454c0 30.254545-13.963636 41.890909-44.218182 41.890909z" fill="#ffffff" p-id="3482"></path><path d="M795.927273 486.4v9.309091c0 23.272727-18.618182 41.890909-41.890909 41.890909H721.454545c-23.272727 0-41.890909-18.618182-41.890909-41.890909v-9.309091c0-18.618182-4.654545-23.272727-23.272727-23.272727S395.636364 465.454545 372.363636 465.454545s-30.254545 4.654545-30.254545 25.6v4.654546c0 23.272727-18.618182 41.890909-41.890909 41.890909h-32.581818c-23.272727 0-41.890909-18.618182-41.890909-41.890909v-2.327273c0-25.6-6.981818-27.927273-27.927273-27.927273H46.545455c-25.6 0-32.581818 6.981818-32.581819 32.581819v421.236363c0 46.545455 37.236364 83.781818 81.454546 83.781818h828.509091c44.218182 0 81.454545-37.236364 81.454545-83.781818V493.381818c0-18.618182-6.981818-25.6-25.6-25.6h-160.581818c-18.618182-2.327273-23.272727 0-23.272727 18.618182z" fill="#ffffff" p-id="3483"></path><path d="M926.254545 1017.018182H97.745455c-53.527273 0-97.745455-44.218182-97.745455-100.072727V495.709091c0-34.909091 13.963636-46.545455 46.545455-46.545455h151.272727c27.927273 0 44.218182 6.981818 44.218182 44.218182v2.327273c0 13.963636 11.636364 25.6 25.6 25.6h32.581818c13.963636 0 25.6-11.636364 25.6-25.6v-4.654546c0-37.236364 20.945455-41.890909 44.218182-41.890909h286.254545c27.927273 0 39.563636 11.636364 39.563636 39.563637v9.309091c0 13.963636 11.636364 25.6 25.6 25.6h32.581819c13.963636 0 25.6-11.636364 25.6-25.6V488.727273c0-32.581818 20.945455-37.236364 44.218181-37.236364h160.581819c34.909091 0 41.890909 23.272727 41.890909 41.890909v425.890909c-2.327273 51.2-46.545455 97.745455-100.072728 97.745455zM46.545455 479.418182c-11.636364 0-13.963636 2.327273-13.963637 2.327273s-2.327273 2.327273-2.327273 13.963636v421.236364c0 37.236364 30.254545 67.490909 67.49091 67.490909h828.50909c37.236364 0 67.490909-30.254545 67.49091-67.490909V488.727273c0-6.981818-2.327273-9.309091-2.327273-9.309091s-2.327273-2.327273-9.309091-2.327273h-172.218182v18.618182c-2.327273 30.254545-25.6 55.854545-55.854545 55.854545H721.454545c-30.254545 0-55.854545-25.6-55.854545-55.854545V488.727273v-6.981818H372.363636c-9.309091 0-11.636364 0-13.963636 2.327272v20.945455c-2.327273 30.254545-27.927273 51.2-55.854545 51.2h-32.581819c-27.927273 0-51.2-20.945455-55.854545-48.872727v-11.636364c0-9.309091 0-11.636364-2.327273-11.636364H46.545455z" fill="#ffffff" p-id="3484"></path><path d="M286.254545 367.709091c-16.290909 0-30.254545 18.618182-30.254545 41.890909v51.2c0 23.272727 13.963636 41.890909 30.254545 41.890909 16.290909 0 30.254545-18.618182 30.254546-41.890909v-51.2c0-23.272727-13.963636-41.890909-30.254546-41.890909zM737.745455 367.709091c-16.290909 0-30.254545 18.618182-30.254546 41.890909v51.2c0 23.272727 13.963636 41.890909 30.254546 41.890909 16.290909 0 30.254545-18.618182 30.254545-41.890909v-51.2c2.327273-23.272727-11.636364-41.890909-30.254545-41.890909zM756.363636 200.145455C728.436364 88.436364 628.363636 6.981818 512 6.981818s-216.436364 81.454545-244.363636 190.836364c0 0-2.327273 20.945455 32.581818 20.945454s39.563636-20.945455 39.563636-20.945454c25.6-72.145455 93.090909-123.345455 174.545455-123.345455s146.618182 51.2 174.545454 123.345455c0 0 4.654545 23.272727 37.236364 23.272727s30.254545-20.945455 30.254545-20.945454z" fill="#ffffff" p-id="3485"></path><path d="M72.145455 733.090909c-6.981818 0-13.963636-6.981818-13.963637-13.963636v-193.163637c0-6.981818 6.981818-13.963636 13.963637-13.963636s13.963636 6.981818 13.963636 13.963636v193.163637c0 6.981818-6.981818 13.963636-13.963636 13.963636z" fill="#ffffff" p-id="3486"></path><path d="M72.145455 763.345455m-13.963637 0a13.963636 13.963636 0 1 0 27.927273 0 13.963636 13.963636 0 1 0-27.927273 0Z" fill="#ffffff" p-id="3487"></path></svg>